<svg xmlns="http://www.w3.org/2000/svg" viewBox="0 0 64 64">
    <g>
        <path fill="#999999" d="M54.839,4.548v27.286c0,12.733-17.28,23.647-22.737,26.376C26.645,55.48,9.364,44.566,9.364,31.833V4.548
		H54.839 M59.387,0H4.816v31.833c0,18.19,25.467,30.923,26.377,31.378l0.909,0.455l0.909-0.455
		c1.364-0.455,26.376-13.644,26.376-31.378V0z"/>
        <path fill="#666666" d="M32.102,9.095H13.911v22.739c0,8.64,11.369,17.282,18.191,21.373V9.095z"/>
    </g>
    <path fill="#FF8700" d="M61.986,26.133C56.29,15.019,45.013,7.5,32.101,7.5C19.19,7.5,7.909,15.024,2.217,26.134
	c-0.488,0.964-0.488,2.102,0,3.066C7.913,40.313,19.19,47.834,32.101,47.834c12.912,0,24.193-7.526,29.885-18.635
	C62.474,28.235,62.474,27.097,61.986,26.133z M32.101,42.791c-8.353,0-15.125-6.771-15.125-15.125s6.772-15.125,15.125-15.125
	c8.353,0,15.125,6.772,15.125,15.125c0.004,8.349-6.761,15.122-15.111,15.125C32.11,42.791,32.106,42.791,32.101,42.791z
	 M32.101,17.583c-0.9,0.013-1.794,0.146-2.659,0.397c1.645,2.236,1.167,5.382-1.069,7.027c-1.772,1.303-4.186,1.303-5.958,0
	c-1.455,5.361,1.711,10.89,7.074,12.345c5.363,1.454,10.89-1.712,12.345-7.074c1.456-5.363-1.712-10.89-7.073-12.344
	C33.895,17.699,33,17.581,32.101,17.583z"/>
</svg>
